<?xml version="1.0" encoding="utf-8"?>
<!-- Generator: Adobe Illustrator 15.0.0, SVG Export Plug-In . SVG Version: 6.00 Build 0)  -->
<!DOCTYPE svg PUBLIC "-//W3C//DTD SVG 1.1//EN" "http://www.w3.org/Graphics/SVG/1.1/DTD/svg11.dtd">
<svg version="1.1" id="Layer_1" xmlns="http://www.w3.org/2000/svg" xmlns:xlink="http://www.w3.org/1999/xlink" x="0px" y="0px"
	 width="483px" height="239px" viewBox="155.5 179.5 483 239" enable-background="new 155.5 179.5 483 239" xml:space="preserve">
<g>
	<g>
		<g>
			<path fill="#E7E7E7" d="M432.752,270.054c0,0.854-10.604,23.539-31.816,68.092c-7.11,15.481-17.985,38.588-32.613,69.342
				c-1.38,2.877-2.818,4.305-4.292,4.305h-28.637c-2.011,0-3.659-1.428-4.935-4.305c-7.846-18.451-19.141-47.498-33.888-87.163
				c-7.308,19.505-18.709,48.575-34.191,87.163c-1.169,2.877-2.759,4.305-4.771,4.305h-28.484c-1.59,0-3.076-1.428-4.456-4.305
				c-7.308-15.363-18.289-38.494-32.929-69.342c-20.253-42.214-30.379-64.913-30.379-68.092c0-8.7,0.269-21.796,0.795-39.302
				c0.526-17.494,0.795-30.59,0.795-39.29c0-1.907,1.322-2.854,3.976-2.854c1.918,0,4.806,0.152,8.677,0.468
				c3.87,0.328,6.759,0.479,8.665,0.479c1.8,0,4.502-0.104,8.115-0.315c3.601-0.211,6.302-0.328,8.115-0.328
				c2.222,0,3.333,0.795,3.333,2.385c0,8.606-0.503,21.563-1.509,38.904c-1.006,17.342-1.508,30.298-1.508,38.893
				c0,5.414,10.711,29.9,32.133,73.494c7.098,14.43,10.969,21.633,11.613,21.633c0.209-0.094,0.479-0.467,0.795-1.11
				c1.274-2.443,3.975-9.228,8.115-20.357c7.636-20.675,15.482-44.179,23.539-70.478c0.315-2.654,0.479-11.026,0.479-25.129
				c0-6.256-0.186-15.623-0.56-28.088c-0.363-12.454-0.551-21.82-0.551-28.065c0-1.59,1.111-2.385,3.345-2.385
				c2.011,0,5.029,0.152,9.063,0.468c4.034,0.328,7.098,0.479,9.226,0.479c1.801,0,4.502-0.151,8.115-0.479
				c3.601-0.316,6.303-0.468,8.116-0.468c2.433,0,3.659,0.842,3.659,2.538c0,6.677-0.222,16.733-0.643,30.146
				c-0.421,13.413-0.632,23.469-0.632,30.146c0,10.934,0.048,17.552,0.152,19.891c0.316,5.297,8.326,28.579,24.03,69.835
				c1.684,4.664,4.443,11.342,8.268,20.041c0.105,0.422,0.316,0.795,0.631,1.111c0.643,0,4.396-7.052,11.295-21.152
				c20.896-42.741,31.34-66.865,31.34-72.384c0-8.7-0.48-21.68-1.427-38.975c-0.96-17.283-1.439-30.228-1.439-38.811
				c0-1.59,0.421-2.385,1.274-2.385c2.117,0,5.274,0.152,9.461,0.468c4.197,0.328,7.344,0.479,9.473,0.479
				c1.905,0,4.817-0.151,8.746-0.479c3.929-0.316,6.898-0.468,8.91-0.468c2.233,0,3.496,0.632,3.823,1.894c0-0.093,0,1.38,0,4.467
				c0,8.373,0.257,20.885,0.784,37.536C432.484,249.158,432.752,261.67,432.752,270.054z"/>
		</g>
		<g>
			<path fill="#E7E7E7" d="M630.643,343.068c0,18.453-5.565,34.309-16.697,47.559c-11.775,13.904-26.731,20.85-44.868,20.85
				c-6.782,0-16.99-0.164-30.625-0.479c-13.623-0.328-23.832-0.48-30.614-0.48c-4.994,0-12.488,0.222-22.51,0.644
				c-10.022,0.422-17.528,0.633-22.51,0.633c-2.655,0-3.978-1.217-3.978-3.66c0-11.66,0.55-29.188,1.661-52.574
				c1.122-23.389,1.673-40.917,1.673-52.574c0-12.301-0.551-30.79-1.673-55.439c-1.111-24.662-1.661-43.138-1.661-55.451
				c0-2.315,1.321-3.485,3.978-3.485c9.437,0,23.645,0.047,42.635,0.152c18.979,0.105,33.245,0.152,42.785,0.152
				c22.275,0,40.04,4.139,53.288,12.418c16.125,10.08,24.182,25.715,24.182,46.927c0,7.32-2.115,14.933-6.36,22.826
				c-4.243,7.905-9.378,13.868-15.424,17.903c-3.075,2.011-4.619,3.344-4.619,3.976c0,0.631,1.544,1.8,4.619,3.496
				c8.058,4.455,14.523,11.003,19.399,19.645C628.198,324.744,630.643,333.738,630.643,343.068z M585.938,251.754
				c0-14.945-6.679-25.024-20.043-30.217c-8.059-3.086-21.26-4.619-39.606-4.619c-17.82,0-26.73,1.321-26.73,3.976
				c0,3.496-0.164,8.758-0.479,15.751c-0.316,6.992-0.469,12.301-0.469,15.903c0,2.444,0.047,6.209,0.151,11.296
				c0.105,5.098,0.164,8.911,0.164,11.46c0,3.075,11.985,4.607,35.946,4.607C568.924,279.912,585.938,270.534,585.938,251.754z
				 M590.229,341.479c0-12.944-5.776-21.69-17.329-26.252c-7.32-2.971-18.723-4.442-34.203-4.442
				c-26.732,0-40.087,1.426-40.087,4.291v26.09c0,3.811,0.104,9.646,0.315,17.492c0.211,7.856,0.315,13.739,0.315,17.655
				c0,1.064,3.392,1.861,10.185,2.388c6.782,0.539,16.862,0.795,30.229,0.795c16.745,0,28.789-2.176,36.108-6.525
				C585.412,367.252,590.229,356.75,590.229,341.479z"/>
		</g>
	</g>
	<g>
		<g>
			<defs>
				<path id="SVGID_1_" d="M630.643,343.068c0,18.453-5.565,34.309-16.71,47.559c-11.764,13.904-26.72,20.85-44.855,20.85
					c-6.782,0-16.99-0.164-30.625-0.479c-13.623-0.328-23.832-0.48-30.614-0.48c-4.994,0-12.488,0.222-22.521,0.644
					c-10.011,0.422-17.518,0.633-22.498,0.633c-2.655,0-3.978-1.217-3.978-3.66c0-11.66,0.55-29.188,1.661-52.574
					c1.122-23.389,1.673-40.917,1.673-52.574c0-12.301-0.551-30.79-1.673-55.439c-1.111-24.662-1.661-43.138-1.661-55.451
					c0-2.315,1.321-3.485,3.978-3.485c9.437,0,23.645,0.047,42.622,0.152c18.99,0.105,33.258,0.152,42.798,0.152
					c22.266,0,40.04,4.139,53.288,12.418c16.125,10.08,24.182,25.715,24.182,46.927c0,7.32-2.128,14.933-6.36,22.826
					c-4.244,7.905-9.39,13.868-15.436,17.903c-3.075,2.011-4.607,3.344-4.607,3.976c0,0.631,1.532,1.8,4.607,3.496
					c8.057,4.455,14.535,11.003,19.411,19.645C628.198,324.744,630.643,333.738,630.643,343.068z M585.938,251.754
					c0-14.945-6.679-25.024-20.043-30.217c-8.059-3.086-21.271-4.619-39.606-4.619c-17.82,0-26.73,1.321-26.73,3.976
					c0,3.496-0.164,8.758-0.479,15.751c-0.316,6.992-0.479,12.301-0.479,15.903c0,2.444,0.059,6.209,0.163,11.296
					c0.105,5.098,0.164,8.911,0.164,11.46c0,3.075,11.976,4.607,35.946,4.607C568.913,279.912,585.938,270.534,585.938,251.754z
					 M590.229,341.479c0-12.944-5.776-21.69-17.329-26.252c-7.32-2.971-18.723-4.442-34.203-4.442
					c-26.732,0-40.099,1.426-40.099,4.291v26.09c0,3.811,0.104,9.646,0.327,17.492c0.211,7.856,0.315,13.739,0.315,17.655
					c0,1.064,3.392,1.861,10.174,2.388c6.793,0.539,16.873,0.795,30.227,0.795c16.759,0,28.803-2.176,36.122-6.525
					C585.412,367.252,590.229,356.75,590.229,341.479z"/>
			</defs>
			<clipPath id="SVGID_2_">
				<use xlink:href="#SVGID_1_"  overflow="visible"/>
			</clipPath>
			<path clip-path="url(#SVGID_2_)" fill="#D2D3D4" d="M60.033,723.67l167.591-228.385l32.731-25.728
				c0,0,28.848,97.441,145.76-32.741c0,0,24.941-27.271,46.773-25.716c0,0,16.37,7.017,14.031,21.832
				c0,0-28.848,116.142-102.119,130.945c0,0-51.44,43.652-83.398-7.018c0,0-52.481,16.629-70.934,36.637
				c-12.243,13.272-24.159,7.801-59.239,41.313C151.231,634.811,67.049,743.152,60.033,723.67z"/>
		</g>
		<g>
			<defs>
				<path id="SVGID_3_" d="M630.643,343.068c0,18.453-5.565,34.309-16.71,47.559c-11.764,13.904-26.72,20.85-44.855,20.85
					c-6.782,0-16.99-0.164-30.625-0.479c-13.623-0.328-23.832-0.48-30.614-0.48c-4.994,0-12.488,0.222-22.521,0.644
					c-10.011,0.422-17.518,0.633-22.498,0.633c-2.655,0-3.978-1.217-3.978-3.66c0-11.66,0.55-29.188,1.661-52.574
					c1.122-23.389,1.673-40.917,1.673-52.574c0-12.301-0.551-30.79-1.673-55.439c-1.111-24.662-1.661-43.138-1.661-55.451
					c0-2.315,1.321-3.485,3.978-3.485c9.437,0,23.645,0.047,42.622,0.152c18.99,0.105,33.258,0.152,42.798,0.152
					c22.266,0,40.04,4.139,53.288,12.418c16.125,10.08,24.182,25.715,24.182,46.927c0,7.32-2.128,14.933-6.36,22.826
					c-4.244,7.905-9.39,13.868-15.436,17.903c-3.075,2.011-4.607,3.344-4.607,3.976c0,0.631,1.532,1.8,4.607,3.496
					c8.057,4.455,14.535,11.003,19.411,19.645C628.198,324.744,630.643,333.738,630.643,343.068z M585.938,251.754
					c0-14.945-6.679-25.024-20.043-30.217c-8.059-3.086-21.271-4.619-39.606-4.619c-17.82,0-26.73,1.321-26.73,3.976
					c0,3.496-0.164,8.758-0.479,15.751c-0.316,6.992-0.479,12.301-0.479,15.903c0,2.444,0.059,6.209,0.163,11.296
					c0.105,5.098,0.164,8.911,0.164,11.46c0,3.075,11.976,4.607,35.946,4.607C568.913,279.912,585.938,270.534,585.938,251.754z
					 M590.229,341.479c0-12.944-5.776-21.69-17.329-26.252c-7.32-2.971-18.723-4.442-34.203-4.442
					c-26.732,0-40.099,1.426-40.099,4.291v26.09c0,3.811,0.104,9.646,0.327,17.492c0.211,7.856,0.315,13.739,0.315,17.655
					c0,1.064,3.392,1.861,10.174,2.388c6.793,0.539,16.873,0.795,30.227,0.795c16.759,0,28.803-2.176,36.122-6.525
					C585.412,367.252,590.229,356.75,590.229,341.479z"/>
			</defs>
			<clipPath id="SVGID_4_">
				<use xlink:href="#SVGID_3_"  overflow="visible"/>
			</clipPath>
			<path clip-path="url(#SVGID_4_)" fill="#F89521" d="M310.24,304.316c0,0,35.863-13.25,91.197,7.8c0,0,68.594-13.261,75.609,8.56
				c0,0,6.256,66.98-10.127,112.258c0,0-9.563-7.786-8.29-18.313c0,0-23.714,17.529-48.633,18.313
				c0,0-70.139,95.865-103.652,104.447l-21.984,23.82c0,0,24.324,42.436,41.08,43.207h15.202l-15.202-23.271
				c0,0,23.002,23.271,39.361,29.502c0,0,43.652,80.287-3.895,69.377c0,0,26.498,3.906,7.8-34.297c0,0-4.678,5.463-10.139,3.896
				c0,0,2.339-18.709-4.676-29.607c0,0-3.894,10.127-7.789,8.56c0,0,3.895-5.449-0.784-14.804c0,0-29.619,3.109-40.529-8.571
				l-34.262-44.554l9.32-38.854c0,0-62.361-39.748-31.187-94.31l-8.723-40.543C239.938,386.932,286.864,320.676,310.24,304.316z"/>
		</g>
		<g>
			<defs>
				<path id="SVGID_5_" d="M630.643,343.068c0,18.453-5.565,34.309-16.71,47.559c-11.764,13.904-26.72,20.85-44.855,20.85
					c-6.782,0-16.99-0.164-30.625-0.479c-13.623-0.328-23.832-0.48-30.614-0.48c-4.994,0-12.488,0.222-22.521,0.644
					c-10.011,0.422-17.518,0.633-22.498,0.633c-2.655,0-3.978-1.217-3.978-3.66c0-11.66,0.55-29.188,1.661-52.574
					c1.122-23.389,1.673-40.917,1.673-52.574c0-12.301-0.551-30.79-1.673-55.439c-1.111-24.662-1.661-43.138-1.661-55.451
					c0-2.315,1.321-3.485,3.978-3.485c9.437,0,23.645,0.047,42.622,0.152c18.99,0.105,33.258,0.152,42.798,0.152
					c22.266,0,40.04,4.139,53.288,12.418c16.125,10.08,24.182,25.715,24.182,46.927c0,7.32-2.128,14.933-6.36,22.826
					c-4.244,7.905-9.39,13.868-15.436,17.903c-3.075,2.011-4.607,3.344-4.607,3.976c0,0.631,1.532,1.8,4.607,3.496
					c8.057,4.455,14.535,11.003,19.411,19.645C628.198,324.744,630.643,333.738,630.643,343.068z M585.938,251.754
					c0-14.945-6.679-25.024-20.043-30.217c-8.059-3.086-21.271-4.619-39.606-4.619c-17.82,0-26.73,1.321-26.73,3.976
					c0,3.496-0.164,8.758-0.479,15.751c-0.316,6.992-0.479,12.301-0.479,15.903c0,2.444,0.059,6.209,0.163,11.296
					c0.105,5.098,0.164,8.911,0.164,11.46c0,3.075,11.976,4.607,35.946,4.607C568.913,279.912,585.938,270.534,585.938,251.754z
					 M590.229,341.479c0-12.944-5.776-21.69-17.329-26.252c-7.32-2.971-18.723-4.442-34.203-4.442
					c-26.732,0-40.099,1.426-40.099,4.291v26.09c0,3.811,0.104,9.646,0.327,17.492c0.211,7.856,0.315,13.739,0.315,17.655
					c0,1.064,3.392,1.861,10.174,2.388c6.793,0.539,16.873,0.795,30.227,0.795c16.759,0,28.803-2.176,36.122-6.525
					C585.412,367.252,590.229,356.75,590.229,341.479z"/>
			</defs>
			<clipPath id="SVGID_6_">
				<use xlink:href="#SVGID_5_"  overflow="visible"/>
			</clipPath>
			<path clip-path="url(#SVGID_6_)" fill="#29AAE1" d="M416.253,324.582c0,0,38.157,27.246,61.952,22.592
				c0,0-5.051-46.751,15.214-63.123c0,0,21.82-48.329-21.831-71.716c0,0-48.319-26.498-108.341,24.942
				c0,0-47.862,61.134-48.096,65.647c0,0,60.571-6.408,59.789,8.396c0,0-84.498,3.905-135.002,75.61
				c0,0-74.675,74.058-81.691,126.279L48.34,718.209c0,0-7.542,12.863,11.693,5.461l167.591-228.385
				c0,0,173.041-142.64,166.81-169.933C394.434,325.354,399.883,306.655,416.253,324.582z"/>
		</g>
		<g>
			<defs>
				<path id="SVGID_7_" d="M630.643,343.068c0,18.453-5.565,34.309-16.71,47.559c-11.764,13.904-26.72,20.85-44.855,20.85
					c-6.782,0-16.99-0.164-30.625-0.479c-13.623-0.328-23.832-0.48-30.614-0.48c-4.994,0-12.488,0.222-22.521,0.644
					c-10.011,0.422-17.518,0.633-22.498,0.633c-2.655,0-3.978-1.217-3.978-3.66c0-11.66,0.55-29.188,1.661-52.574
					c1.122-23.389,1.673-40.917,1.673-52.574c0-12.301-0.551-30.79-1.673-55.439c-1.111-24.662-1.661-43.138-1.661-55.451
					c0-2.315,1.321-3.485,3.978-3.485c9.437,0,23.645,0.047,42.622,0.152c18.99,0.105,33.258,0.152,42.798,0.152
					c22.266,0,40.04,4.139,53.288,12.418c16.125,10.08,24.182,25.715,24.182,46.927c0,7.32-2.128,14.933-6.36,22.826
					c-4.244,7.905-9.39,13.868-15.436,17.903c-3.075,2.011-4.607,3.344-4.607,3.976c0,0.631,1.532,1.8,4.607,3.496
					c8.057,4.455,14.535,11.003,19.411,19.645C628.198,324.744,630.643,333.738,630.643,343.068z M585.938,251.754
					c0-14.945-6.679-25.024-20.043-30.217c-8.059-3.086-21.271-4.619-39.606-4.619c-17.82,0-26.73,1.321-26.73,3.976
					c0,3.496-0.164,8.758-0.479,15.751c-0.316,6.992-0.479,12.301-0.479,15.903c0,2.444,0.059,6.209,0.163,11.296
					c0.105,5.098,0.164,8.911,0.164,11.46c0,3.075,11.976,4.607,35.946,4.607C568.913,279.912,585.938,270.534,585.938,251.754z
					 M590.229,341.479c0-12.944-5.776-21.69-17.329-26.252c-7.32-2.971-18.723-4.442-34.203-4.442
					c-26.732,0-40.099,1.426-40.099,4.291v26.09c0,3.811,0.104,9.646,0.327,17.492c0.211,7.856,0.315,13.739,0.315,17.655
					c0,1.064,3.392,1.861,10.174,2.388c6.793,0.539,16.873,0.795,30.227,0.795c16.759,0,28.803-2.176,36.122-6.525
					C585.412,367.252,590.229,356.75,590.229,341.479z"/>
			</defs>
			<clipPath id="SVGID_8_">
				<use xlink:href="#SVGID_7_"  overflow="visible"/>
			</clipPath>
			<path clip-path="url(#SVGID_8_)" fill="#424143" d="M462.244,275.469c0,0,7.787,9.354,31.175,8.583
				c0,0,21.037-4.583,38.191,0.047c0,0-3.123-12.524-32.742-24.206C498.868,259.893,473.926,272.358,462.244,275.469z"/>
		</g>
	</g>
	<g>
		<g>
			<defs>
				<path id="SVGID_9_" d="M432.752,270.054c0,0.854-10.604,23.539-31.816,68.092c-7.11,15.481-17.985,38.588-32.613,69.342
					c-1.38,2.877-2.818,4.305-4.292,4.305h-28.637c-2.023,0-3.659-1.428-4.935-4.305c-7.846-18.451-19.141-47.498-33.875-87.163
					c-7.32,19.505-18.722,48.575-34.204,87.163c-1.169,2.877-2.759,4.305-4.783,4.305h-28.473c-1.59,0-3.076-1.428-4.456-4.305
					c-7.308-15.363-18.289-38.494-32.917-69.342c-20.265-42.214-30.392-64.913-30.392-68.092c0-8.7,0.257-21.796,0.795-39.302
					c0.538-17.494,0.795-30.59,0.795-39.29c0-1.907,1.322-2.854,3.976-2.854c1.918,0,4.795,0.152,8.677,0.468
					c3.87,0.328,6.759,0.479,8.665,0.479c1.8,0,4.513-0.104,8.115-0.315c3.601-0.211,6.302-0.328,8.115-0.328
					c2.222,0,3.333,0.795,3.333,2.385c0,8.606-0.503,21.563-1.509,38.904c-1.006,17.342-1.508,30.298-1.508,38.893
					c0,5.414,10.711,29.9,32.133,73.494c7.098,14.43,10.981,21.633,11.613,21.633c0.209-0.094,0.479-0.467,0.795-1.11
					c1.274-2.443,3.975-9.228,8.115-20.357c7.636-20.675,15.482-44.179,23.539-70.478c0.315-2.654,0.479-11.026,0.479-25.129
					c0-6.256-0.186-15.623-0.549-28.088c-0.386-12.454-0.562-21.82-0.562-28.065c0-1.59,1.111-2.385,3.334-2.385
					c2.022,0,5.04,0.152,9.074,0.468c4.023,0.328,7.098,0.479,9.226,0.479c1.801,0,4.502-0.151,8.115-0.479
					c3.601-0.316,6.303-0.468,8.103-0.468c2.445,0,3.661,0.842,3.661,2.538c0,6.677-0.211,16.733-0.631,30.146
					c-0.421,13.413-0.632,23.469-0.632,30.146c0,10.934,0.048,17.552,0.152,19.891c0.316,5.297,8.326,28.579,24.019,69.835
					c1.695,4.664,4.455,11.342,8.279,20.041c0.105,0.422,0.316,0.795,0.631,1.111c0.643,0,4.396-7.052,11.295-21.152
					c20.896-42.741,31.34-66.865,31.34-72.384c0-8.7-0.48-21.68-1.427-38.975c-0.96-17.283-1.439-30.228-1.439-38.811
					c0-1.59,0.421-2.385,1.274-2.385c2.117,0,5.274,0.152,9.461,0.468c4.197,0.328,7.345,0.479,9.472,0.479
					c1.906,0,4.818-0.151,8.748-0.479c3.928-0.316,6.897-0.468,8.909-0.468c2.233,0,3.496,0.632,3.813,1.894c0-0.093,0,1.38,0,4.467
					c0,8.373,0.268,20.885,0.795,37.536C432.484,249.158,432.752,261.67,432.752,270.054z"/>
			</defs>
			<clipPath id="SVGID_10_">
				<use xlink:href="#SVGID_9_"  overflow="visible"/>
			</clipPath>
			<path clip-path="url(#SVGID_10_)" fill="#D2D3D4" d="M60.033,723.67l167.591-228.385l32.731-25.728
				c0,0,28.848,97.441,145.76-32.741c0,0,24.941-27.271,46.773-25.716c0,0,16.37,7.017,14.031,21.832
				c0,0-28.848,116.142-102.119,130.945c0,0-51.44,43.652-83.398-7.018c0,0-52.481,16.629-70.934,36.637
				c-12.243,13.272-24.159,7.801-59.239,41.313C151.231,634.811,67.049,743.152,60.033,723.67z"/>
		</g>
		<g>
			<defs>
				<path id="SVGID_11_" d="M432.752,270.054c0,0.854-10.604,23.539-31.816,68.092c-7.11,15.481-17.985,38.588-32.613,69.342
					c-1.38,2.877-2.818,4.305-4.292,4.305h-28.637c-2.023,0-3.659-1.428-4.935-4.305c-7.846-18.451-19.141-47.498-33.875-87.163
					c-7.32,19.505-18.722,48.575-34.204,87.163c-1.169,2.877-2.759,4.305-4.783,4.305h-28.473c-1.59,0-3.076-1.428-4.456-4.305
					c-7.308-15.363-18.289-38.494-32.917-69.342c-20.265-42.214-30.392-64.913-30.392-68.092c0-8.7,0.257-21.796,0.795-39.302
					c0.538-17.494,0.795-30.59,0.795-39.29c0-1.907,1.322-2.854,3.976-2.854c1.918,0,4.795,0.152,8.677,0.468
					c3.87,0.328,6.759,0.479,8.665,0.479c1.8,0,4.513-0.104,8.115-0.315c3.601-0.211,6.302-0.328,8.115-0.328
					c2.222,0,3.333,0.795,3.333,2.385c0,8.606-0.503,21.563-1.509,38.904c-1.006,17.342-1.508,30.298-1.508,38.893
					c0,5.414,10.711,29.9,32.133,73.494c7.098,14.43,10.981,21.633,11.613,21.633c0.209-0.094,0.479-0.467,0.795-1.11
					c1.274-2.443,3.975-9.228,8.115-20.357c7.636-20.675,15.482-44.179,23.539-70.478c0.315-2.654,0.479-11.026,0.479-25.129
					c0-6.256-0.186-15.623-0.549-28.088c-0.386-12.454-0.562-21.82-0.562-28.065c0-1.59,1.111-2.385,3.334-2.385
					c2.022,0,5.04,0.152,9.074,0.468c4.023,0.328,7.098,0.479,9.226,0.479c1.801,0,4.502-0.151,8.115-0.479
					c3.601-0.316,6.303-0.468,8.103-0.468c2.445,0,3.661,0.842,3.661,2.538c0,6.677-0.211,16.733-0.631,30.146
					c-0.421,13.413-0.632,23.469-0.632,30.146c0,10.934,0.048,17.552,0.152,19.891c0.316,5.297,8.326,28.579,24.019,69.835
					c1.695,4.664,4.455,11.342,8.279,20.041c0.105,0.422,0.316,0.795,0.631,1.111c0.643,0,4.396-7.052,11.295-21.152
					c20.896-42.741,31.34-66.865,31.34-72.384c0-8.7-0.48-21.68-1.427-38.975c-0.96-17.283-1.439-30.228-1.439-38.811
					c0-1.59,0.421-2.385,1.274-2.385c2.117,0,5.274,0.152,9.461,0.468c4.197,0.328,7.345,0.479,9.472,0.479
					c1.906,0,4.818-0.151,8.748-0.479c3.928-0.316,6.897-0.468,8.909-0.468c2.233,0,3.496,0.632,3.813,1.894c0-0.093,0,1.38,0,4.467
					c0,8.373,0.268,20.885,0.795,37.536C432.484,249.158,432.752,261.67,432.752,270.054z"/>
			</defs>
			<clipPath id="SVGID_12_">
				<use xlink:href="#SVGID_11_"  overflow="visible"/>
			</clipPath>
			<path clip-path="url(#SVGID_12_)" fill="#F89521" d="M310.24,304.316c0,0,35.863-13.25,91.197,7.8c0,0,68.594-13.261,75.609,8.56
				c0,0,6.256,66.98-10.127,112.258c0,0-9.563-7.786-8.29-18.313c0,0-23.714,17.529-48.633,18.313
				c0,0-70.139,95.865-103.652,104.447l-21.984,23.82c0,0,24.324,42.436,41.08,43.207h15.202l-15.202-23.271
				c0,0,23.002,23.271,39.361,29.502c0,0,43.652,80.287-3.895,69.377c0,0,26.498,3.906,7.8-34.297c0,0-4.678,5.463-10.139,3.896
				c0,0,2.339-18.709-4.676-29.607c0,0-3.894,10.127-7.789,8.56c0,0,3.895-5.449-0.784-14.804c0,0-29.619,3.109-40.529-8.571
				l-34.262-44.554l9.32-38.854c0,0-62.361-39.748-31.187-94.31l-8.723-40.543C239.938,386.932,286.864,320.676,310.24,304.316z"/>
		</g>
		<g>
			<defs>
				<path id="SVGID_13_" d="M432.752,270.054c0,0.854-10.604,23.539-31.816,68.092c-7.11,15.481-17.985,38.588-32.613,69.342
					c-1.38,2.877-2.818,4.305-4.292,4.305h-28.637c-2.023,0-3.659-1.428-4.935-4.305c-7.846-18.451-19.141-47.498-33.875-87.163
					c-7.32,19.505-18.722,48.575-34.204,87.163c-1.169,2.877-2.759,4.305-4.783,4.305h-28.473c-1.59,0-3.076-1.428-4.456-4.305
					c-7.308-15.363-18.289-38.494-32.917-69.342c-20.265-42.214-30.392-64.913-30.392-68.092c0-8.7,0.257-21.796,0.795-39.302
					c0.538-17.494,0.795-30.59,0.795-39.29c0-1.907,1.322-2.854,3.976-2.854c1.918,0,4.795,0.152,8.677,0.468
					c3.87,0.328,6.759,0.479,8.665,0.479c1.8,0,4.513-0.104,8.115-0.315c3.601-0.211,6.302-0.328,8.115-0.328
					c2.222,0,3.333,0.795,3.333,2.385c0,8.606-0.503,21.563-1.509,38.904c-1.006,17.342-1.508,30.298-1.508,38.893
					c0,5.414,10.711,29.9,32.133,73.494c7.098,14.43,10.981,21.633,11.613,21.633c0.209-0.094,0.479-0.467,0.795-1.11
					c1.274-2.443,3.975-9.228,8.115-20.357c7.636-20.675,15.482-44.179,23.539-70.478c0.315-2.654,0.479-11.026,0.479-25.129
					c0-6.256-0.186-15.623-0.549-28.088c-0.386-12.454-0.562-21.82-0.562-28.065c0-1.59,1.111-2.385,3.334-2.385
					c2.022,0,5.04,0.152,9.074,0.468c4.023,0.328,7.098,0.479,9.226,0.479c1.801,0,4.502-0.151,8.115-0.479
					c3.601-0.316,6.303-0.468,8.103-0.468c2.445,0,3.661,0.842,3.661,2.538c0,6.677-0.211,16.733-0.631,30.146
					c-0.421,13.413-0.632,23.469-0.632,30.146c0,10.934,0.048,17.552,0.152,19.891c0.316,5.297,8.326,28.579,24.019,69.835
					c1.695,4.664,4.455,11.342,8.279,20.041c0.105,0.422,0.316,0.795,0.631,1.111c0.643,0,4.396-7.052,11.295-21.152
					c20.896-42.741,31.34-66.865,31.34-72.384c0-8.7-0.48-21.68-1.427-38.975c-0.96-17.283-1.439-30.228-1.439-38.811
					c0-1.59,0.421-2.385,1.274-2.385c2.117,0,5.274,0.152,9.461,0.468c4.197,0.328,7.345,0.479,9.472,0.479
					c1.906,0,4.818-0.151,8.748-0.479c3.928-0.316,6.897-0.468,8.909-0.468c2.233,0,3.496,0.632,3.813,1.894c0-0.093,0,1.38,0,4.467
					c0,8.373,0.268,20.885,0.795,37.536C432.484,249.158,432.752,261.67,432.752,270.054z"/>
			</defs>
			<clipPath id="SVGID_14_">
				<use xlink:href="#SVGID_13_"  overflow="visible"/>
			</clipPath>
			<path clip-path="url(#SVGID_14_)" fill="#29AAE1" d="M416.253,324.582c0,0,38.157,27.246,61.952,22.592
				c0,0-5.051-46.751,15.214-63.123c0,0,21.82-48.329-21.831-71.716c0,0-48.319-26.498-108.341,24.942
				c0,0-47.862,61.134-48.096,65.647c0,0,60.571-6.408,59.789,8.396c0,0-84.498,3.905-135.002,75.61
				c0,0-74.675,74.058-81.691,126.279L48.34,718.209c0,0-7.542,12.863,11.693,5.461l167.591-228.385
				c0,0,173.041-142.64,166.81-169.933C394.434,325.354,399.883,306.655,416.253,324.582z"/>
		</g>
	</g>
</g>
</svg>
