<?xml version="1.0" encoding="utf-8"?>
<!-- Generator: Adobe Illustrator 15.0.0, SVG Export Plug-In . SVG Version: 6.00 Build 0)  -->
<!DOCTYPE svg PUBLIC "-//W3C//DTD SVG 1.1//EN" "http://www.w3.org/Graphics/SVG/1.1/DTD/svg11.dtd">
<svg version="1.1" id="Layer_1" xmlns="http://www.w3.org/2000/svg" xmlns:xlink="http://www.w3.org/1999/xlink" x="0px" y="0px"
	 width="19px" height="19px" viewBox="0 0 19 19" enable-background="new 0 0 19 19" xml:space="preserve">
<linearGradient id="SVGID_1_" gradientUnits="userSpaceOnUse" x1="290.9424" y1="-395.2422" x2="304.3775" y2="-408.6773" gradientTransform="matrix(1 0 0 -1 -288.1602 -392.46)">
	<stop  offset="0.5" style="stop-color:#ACACAC"/>
	<stop  offset="0.5" style="stop-color:#818181"/>
</linearGradient>
<path fill="url(#SVGID_1_)" d="M9.5,0C4.253,0,0,4.253,0,9.5C0,14.747,4.253,19,9.5,19c5.247,0,9.5-4.253,9.5-9.5
	C19,4.253,14.747,0,9.5,0z M9.5,18.186c-4.797,0-8.686-3.889-8.686-8.686S4.703,0.814,9.5,0.814s8.686,3.889,8.686,8.686
	S14.297,18.186,9.5,18.186z"/>
<g>
	
		<linearGradient id="SVGID_2_" gradientUnits="userSpaceOnUse" x1="958.7822" y1="879.1826" x2="970.2983" y2="890.6986" gradientTransform="matrix(1 0 0 1 -955.04 -875.4404)">
		<stop  offset="0.5" style="stop-color:#ACACAC"/>
		<stop  offset="0.5" style="stop-color:#818181"/>
	</linearGradient>
	<circle fill="url(#SVGID_2_)" cx="9.5" cy="9.5" r="8.143"/>
</g>
</svg>
