<?xml version="1.0" encoding="utf-8"?>
<!-- Generator: Adobe Illustrator 15.0.0, SVG Export Plug-In . SVG Version: 6.00 Build 0)  -->
<!DOCTYPE svg PUBLIC "-//W3C//DTD SVG 1.1//EN" "http://www.w3.org/Graphics/SVG/1.1/DTD/svg11.dtd">
<svg version="1.1" id="Layer_1" xmlns="http://www.w3.org/2000/svg" xmlns:xlink="http://www.w3.org/1999/xlink" x="0px" y="0px"
	 width="70px" height="70px" viewBox="0 0 70 70" enable-background="new 0 0 70 70" xml:space="preserve">
<g>
	<linearGradient id="SVGID_1_" gradientUnits="userSpaceOnUse" x1="13.7871" y1="13.7871" x2="56.2135" y2="56.2135">
		<stop  offset="0.5" style="stop-color:#939598"/>
		<stop  offset="0.5" style="stop-color:#6D6E71"/>
	</linearGradient>
	<circle fill="url(#SVGID_1_)" cx="35" cy="35" r="30"/>
</g>
<linearGradient id="SVGID_2_" gradientUnits="userSpaceOnUse" x1="10.252" y1="10.252" x2="59.7494" y2="59.7494">
	<stop  offset="0.5" style="stop-color:#939598"/>
	<stop  offset="0.5" style="stop-color:#6D6E71"/>
</linearGradient>
<path fill="url(#SVGID_2_)" d="M35,0C15.67,0,0,15.67,0,35s15.67,35,35,35s35-15.67,35-35S54.33,0,35,0z M35,67
	C17.327,67,3,52.674,3,35C3,17.327,17.327,3,35,3c17.674,0,32,14.327,32,32C67,52.674,52.674,67,35,67z"/>
<g>
	<polygon fill="#A7A9AC" points="50.181,26.696 50.181,42.117 33.413,42.117 35.288,53.48 33.413,53.48 25.68,44.24 17.944,35 
		25.68,25.76 33.413,16.52 35.288,16.52 33.413,26.696 	"/>
	<polygon fill="#F1F2F2" points="52.056,26.696 52.056,42.117 35.288,42.117 35.288,53.48 27.555,44.24 19.819,35 27.555,25.76 
		35.288,16.52 35.288,26.696 	"/>
</g>
</svg>
