<?xml version="1.0" encoding="utf-8"?>
<!-- Generator: Adobe Illustrator 15.0.0, SVG Export Plug-In . SVG Version: 6.00 Build 0)  -->
<!DOCTYPE svg PUBLIC "-//W3C//DTD SVG 1.1//EN" "http://www.w3.org/Graphics/SVG/1.1/DTD/svg11.dtd">
<svg version="1.1" id="Layer_1" xmlns="http://www.w3.org/2000/svg" xmlns:xlink="http://www.w3.org/1999/xlink" x="0px" y="0px"
	 width="70px" height="70px" viewBox="0 0 70 70" enable-background="new 0 0 70 70" xml:space="preserve">
<g>
	
		<linearGradient id="SVGID_1_" gradientUnits="userSpaceOnUse" x1="276.4473" y1="-328.7466" x2="318.8736" y2="-371.1729" gradientTransform="matrix(1 0 0 -1 -262.6602 -314.96)">
		<stop  offset="0.5" style="stop-color:#3584C3"/>
		<stop  offset="0.5" style="stop-color:#1966A5"/>
	</linearGradient>
	<circle fill="url(#SVGID_1_)" cx="35" cy="35" r="30"/>
</g>
<linearGradient id="SVGID_2_" gradientUnits="userSpaceOnUse" x1="272.9111" y1="-325.2109" x2="322.4087" y2="-374.7085" gradientTransform="matrix(1 0 0 -1 -262.6602 -314.96)">
	<stop  offset="0.5" style="stop-color:#3584C3"/>
	<stop  offset="0.5" style="stop-color:#1966A5"/>
</linearGradient>
<path fill="url(#SVGID_2_)" d="M35,0C15.67,0,0,15.67,0,35s15.67,35,35,35s35-15.67,35-35S54.33,0,35,0z M35,67
	C17.327,67,3,52.674,3,35C3,17.327,17.327,3,35,3c17.674,0,32,14.327,32,32C67,52.674,52.674,67,35,67z"/>
<g>
	<g>
		<path fill="#BCBEC0" d="M40.25,26.857c0,2.324-0.482,4.384-1.447,6.178c-0.123,0.209-1.043,1.522-2.76,3.942
			c-1.032,1.428-1.592,2.83-1.683,4.207c-0.022,0.354-0.045,0.705-0.067,1.059c-0.045,0.271,1.035,0.721,0.755,0.865
			c-0.326,0.16-1.821,0-2,0c-0.572,0-0.908-0.024-1.009-0.072c-0.269-0.145-0.404-0.527-0.404-1.152c0-1.925,0.23-3.453,0.69-4.593
			c0.74-1.378,1.475-2.765,2.203-4.158c0.875-1.667,1.313-3.262,1.313-4.784c0-1.49-0.301-2.692-0.899-3.605
			c-0.602-0.914-1.417-1.37-2.448-1.37c-0.83,0-1.752,0.417-2.767,1.25c-0.313,0.256,0.756,1.072,0.544,1.25
			c-0.477,0.399-2.03,0-2,0c-0.348,0-0.521-1.539-0.521-4.616c0-0.224,0.168-0.504,0.505-0.841c1.761-1.747,3.611-2.62,5.552-2.62
			c1.896,0,3.442,0.833,4.644,2.5C39.648,21.962,40.25,24.15,40.25,26.857z M35.455,48.661c0,0.898,0.959,2.517,0.545,3.188
			c-0.415,0.674-2.099,0.178-2.715,0.178c-0.606,0-1.113-0.337-1.522-1.011c-0.41-0.674-0.614-1.457-0.614-2.355
			c0-0.896,0.202-1.67,0.606-2.318c0.403-0.649,0.914-0.975,1.531-0.975c0.628,0,2.851-0.063,3.261,0.587
			C36.957,46.604,35.455,47.765,35.455,48.661z"/>
	</g>
	<g>
		<path fill="#FFFFFF" d="M42.25,26.857c0,2.324-0.482,4.384-1.447,6.178c-0.123,0.209-1.043,1.522-2.76,3.942
			c-1.031,1.428-1.592,2.83-1.683,4.207c-0.022,0.354-0.045,0.705-0.067,1.059c-0.045,0.271-0.207,0.48-0.487,0.625
			c-0.326,0.16-0.578,0.24-0.757,0.24c-0.572,0-0.908-0.024-1.009-0.072c-0.269-0.145-0.404-0.527-0.404-1.152
			c0-1.925,0.23-3.453,0.69-4.593c0.74-1.378,1.475-2.765,2.204-4.158c0.875-1.667,1.313-3.262,1.313-4.784
			c0-1.49-0.301-2.692-0.898-3.605c-0.602-0.914-1.418-1.37-2.449-1.37c-0.83,0-1.752,0.417-2.767,1.25s-1.5,1.25-1.456,1.25
			c-0.348,0-0.521-1.539-0.521-4.616c0-0.224,0.168-0.504,0.505-0.841c1.761-1.747,3.611-2.62,5.552-2.62
			c1.896,0,3.442,0.833,4.644,2.5C41.648,21.962,42.25,24.15,42.25,26.857z M37.455,48.661c0,0.898-0.209,1.684-0.623,2.355
			c-0.414,0.674-0.931,1.011-1.547,1.011c-0.606,0-1.113-0.337-1.522-1.011c-0.41-0.674-0.614-1.457-0.614-2.355
			c0-0.896,0.202-1.67,0.606-2.318c0.403-0.649,0.914-0.975,1.531-0.975c0.628,0,1.146,0.324,1.556,0.975
			C37.252,46.992,37.455,47.765,37.455,48.661z"/>
	</g>
</g>
</svg>
