<?xml version="1.0" encoding="utf-8"?>
<!-- Generator: Adobe Illustrator 15.0.0, SVG Export Plug-In . SVG Version: 6.00 Build 0)  -->
<!DOCTYPE svg PUBLIC "-//W3C//DTD SVG 1.1//EN" "http://www.w3.org/Graphics/SVG/1.1/DTD/svg11.dtd">
<svg version="1.1" id="Layer_1" xmlns="http://www.w3.org/2000/svg" xmlns:xlink="http://www.w3.org/1999/xlink" x="0px" y="0px"
	 width="70px" height="70px" viewBox="0 0 70 70" enable-background="new 0 0 70 70" xml:space="preserve">
<g>
	
		<linearGradient id="SVGID_1_" gradientUnits="userSpaceOnUse" x1="359.707" y1="794.1074" x2="402.1334" y2="836.5338" gradientTransform="matrix(1 0 0 1 -345.9199 -780.3203)">
		<stop  offset="0.5" style="stop-color:#CC99FF"/>
		<stop  offset="0.5" style="stop-color:#9F73BF"/>
	</linearGradient>
	<circle fill="url(#SVGID_1_)" cx="35" cy="35" r="30"/>
</g>
<linearGradient id="SVGID_2_" gradientUnits="userSpaceOnUse" x1="35.2114" y1="69.0898" x2="84.709" y2="19.5923" gradientTransform="matrix(1 0 0 -1 -24.96 79.3398)">
	<stop  offset="0.5" style="stop-color:#CC99FF"/>
	<stop  offset="0.5" style="stop-color:#9F73BF"/>
</linearGradient>
<path fill="url(#SVGID_2_)" d="M35,0C15.67,0,0,15.67,0,35s15.67,35,35,35s35-15.67,35-35S54.33,0,35,0z M35,67
	C17.327,67,3,52.674,3,35C3,17.327,17.327,3,35,3c17.674,0,32,14.327,32,32C67,52.674,52.674,67,35,67z"/>
<rect x="4186.821" y="1667.834" fill="#FFFFFF" stroke="#231F20" stroke-miterlimit="10" width="395.74" height="677.716"/>
<g>
	<circle fill="#FFAF33" cx="27.625" cy="41.125" r="12.375"/>
	<g>
		<path fill="#B31250" d="M25.65,43.104L24.57,45h-2.82l4.344-7.248c0.248-0.408,0.49-0.727,0.726-0.954s0.454-0.397,0.654-0.51
			c0.2-0.112,0.372-0.181,0.516-0.204c0.144-0.023,0.244-0.036,0.3-0.036h2.592V45h-2.484v-1.896H25.65z M28.446,41.484v-3.373
			l-1.884,3.373H28.446z"/>
	</g>
</g>
<g>
	<circle fill="#FFAF33" cx="47.767" cy="34.826" r="7.767"/>
	<g>
		<path fill="#B31250" d="M49.37,32.003c0.135,0.005,0.269,0.012,0.4,0.021c0.133,0.008,0.257,0.02,0.373,0.036
			c0.115,0.016,0.219,0.037,0.308,0.061c0.089,0.024,0.157,0.056,0.206,0.093c0.194,0.146,0.33,0.339,0.409,0.579
			c0.078,0.24,0.071,0.506-0.021,0.797c-0.049,0.157-0.119,0.309-0.211,0.458s-0.198,0.286-0.319,0.413s-0.255,0.24-0.4,0.34
			c-0.146,0.1-0.295,0.177-0.445,0.23c0.556,0.265,0.723,0.733,0.502,1.409c-0.108,0.361-0.283,0.668-0.526,0.922
			s-0.531,0.434-0.866,0.543c-0.141,0.043-0.315,0.076-0.526,0.1c-0.21,0.025-0.461,0.037-0.753,0.037h-3.164l1.465-4.759
			c-0.205,0.06-0.386,0.135-0.543,0.227c-0.156,0.092-0.286,0.2-0.388,0.324c-0.027,0.038-0.062,0.051-0.102,0.041
			s-0.056-0.035-0.045-0.073c0.179-0.34,0.35-0.627,0.515-0.862c0.164-0.235,0.354-0.424,0.57-0.567
			c0.216-0.143,0.478-0.245,0.785-0.308c0.308-0.062,0.696-0.09,1.166-0.085l1.618,0.008L49.37,32.003z M47.339,36.965
			c0.097,0,0.182-0.002,0.255-0.008c0.072-0.006,0.136-0.014,0.19-0.024c0.054-0.011,0.104-0.025,0.153-0.044
			c0.049-0.02,0.097-0.043,0.146-0.069c0.113-0.07,0.213-0.157,0.3-0.263c0.086-0.105,0.146-0.215,0.178-0.328
			c0.081-0.243,0.043-0.421-0.113-0.535c-0.07-0.048-0.149-0.082-0.238-0.101s-0.229-0.028-0.417-0.028h-0.923l-0.421,1.4H47.339z
			 M48.1,34.488c0.194,0,0.34-0.009,0.437-0.028c0.098-0.019,0.194-0.058,0.292-0.117c0.113-0.07,0.213-0.158,0.299-0.263
			c0.087-0.105,0.148-0.214,0.187-0.328c0.075-0.243,0.035-0.421-0.121-0.534c-0.055-0.049-0.108-0.078-0.162-0.089v0.008h-1.417
			l-0.412,1.352H48.1z"/>
	</g>
</g>
<g>
	<circle fill="#FFAF33" cx="36.983" cy="24.857" r="5.767"/>
	<g>
		<path fill="#B31250" d="M35.934,25.869c0.039,0.041,0.087,0.067,0.143,0.078c0.313,0.045,0.626,0.066,0.938,0.064
			s0.62-0.033,0.926-0.092l-0.296,1.035c-0.776,0.12-1.554,0.136-2.334,0.05c-0.175-0.019-0.318-0.076-0.428-0.173
			c-0.11-0.097-0.193-0.214-0.249-0.353c-0.056-0.138-0.089-0.287-0.101-0.448s-0.004-0.312,0.022-0.453
			c0.03-0.157,0.067-0.336,0.112-0.538c0.045-0.201,0.102-0.406,0.171-0.613c0.069-0.207,0.15-0.409,0.243-0.607
			s0.205-0.374,0.333-0.529c0.129-0.155,0.275-0.279,0.439-0.372s0.351-0.14,0.56-0.14h2.475l-0.303,1.001H36.73
			c-0.055,0-0.107,0.016-0.156,0.048s-0.086,0.072-0.111,0.12c-0.157,0.272-0.284,0.559-0.381,0.859
			c-0.098,0.3-0.162,0.607-0.195,0.92C35.879,25.781,35.895,25.828,35.934,25.869z"/>
	</g>
</g>
</svg>
