<?xml version="1.0" encoding="utf-8"?>
<!-- Generator: Adobe Illustrator 15.0.0, SVG Export Plug-In . SVG Version: 6.00 Build 0)  -->
<!DOCTYPE svg PUBLIC "-//W3C//DTD SVG 1.1//EN" "http://www.w3.org/Graphics/SVG/1.1/DTD/svg11.dtd">
<svg version="1.1" id="Layer_1" xmlns="http://www.w3.org/2000/svg" xmlns:xlink="http://www.w3.org/1999/xlink" x="0px" y="0px"
	 width="70px" height="70px" viewBox="0 0 70 70" enable-background="new 0 0 70 70" xml:space="preserve">
<linearGradient id="SVGID_1_" gradientUnits="userSpaceOnUse" x1="35.2114" y1="69.0898" x2="84.709" y2="19.5923" gradientTransform="matrix(1 0 0 -1 -24.96 79.3398)">
	<stop  offset="0.5" style="stop-color:#FFA3FF"/>
	<stop  offset="0.5" style="stop-color:#FF66FF"/>
</linearGradient>
<path fill="url(#SVGID_1_)" d="M35,0C15.67,0,0,15.67,0,35s15.67,35,35,35s35-15.67,35-35S54.33,0,35,0z M35,67
	C17.327,67,3,52.674,3,35C3,17.327,17.327,3,35,3c17.674,0,32,14.327,32,32C67,52.674,52.674,67,35,67z"/>
<rect x="4186.821" y="1667.834" fill="#FFFFFF" stroke="#231F20" stroke-miterlimit="10" width="395.738" height="677.716"/>
<g>
	
		<linearGradient id="SVGID_2_" gradientUnits="userSpaceOnUse" x1="705.627" y1="1062.4277" x2="748.0534" y2="1104.8541" gradientTransform="matrix(1 0 0 1 -691.8398 -1048.6406)">
		<stop  offset="0.5" style="stop-color:#FFA3FF"/>
		<stop  offset="0.5" style="stop-color:#FF66FF"/>
	</linearGradient>
	<circle fill="url(#SVGID_2_)" cx="35" cy="35" r="30"/>
</g>
<path fill="#EE4036" d="M54.497,30.788c-0.027,1.146-0.127,2.275-0.303,3.38c0,0,0,0.002,0,0.005
	C52.62,44.309,45.097,52.588,35.13,55.654c-10.077-3.061-17.69-11.309-19.311-21.417c-0.183-1.127-0.288-2.28-0.316-3.45
	c0.181-6.356,4.473-11.442,9.745-11.442c5.385,0,9.751,3.78,9.751,10.331c0-6.551,4.367-10.331,9.751-10.331
	C50.022,19.345,54.315,24.431,54.497,30.788z"/>
</svg>
