<?xml version="1.0" encoding="utf-8"?>
<!-- Generator: Adobe Illustrator 15.0.0, SVG Export Plug-In . SVG Version: 6.00 Build 0)  -->
<!DOCTYPE svg PUBLIC "-//W3C//DTD SVG 1.1//EN" "http://www.w3.org/Graphics/SVG/1.1/DTD/svg11.dtd">
<svg version="1.1" id="Layer_1" xmlns="http://www.w3.org/2000/svg" xmlns:xlink="http://www.w3.org/1999/xlink" x="0px" y="0px"
	 width="70px" height="70px" viewBox="0 0 70 70" enable-background="new 0 0 70 70" xml:space="preserve">
<g>
	
		<linearGradient id="SVGID_1_" gradientUnits="userSpaceOnUse" x1="359.707" y1="794.1074" x2="402.1334" y2="836.5338" gradientTransform="matrix(1 0 0 1 -345.9199 -780.3203)">
		<stop  offset="0.5" style="stop-color:#99C4FF"/>
		<stop  offset="0.5" style="stop-color:#7386BF"/>
	</linearGradient>
	<circle fill="url(#SVGID_1_)" cx="35" cy="35" r="30"/>
</g>
<linearGradient id="SVGID_2_" gradientUnits="userSpaceOnUse" x1="35.2114" y1="69.0898" x2="84.709" y2="19.5923" gradientTransform="matrix(1 0 0 -1 -24.96 79.3398)">
	<stop  offset="0.5" style="stop-color:#99C4FF"/>
	<stop  offset="0.5" style="stop-color:#7386BF"/>
</linearGradient>
<path fill="url(#SVGID_2_)" d="M35,0C15.67,0,0,15.67,0,35s15.67,35,35,35s35-15.67,35-35S54.33,0,35,0z M35,67
	C17.327,67,3,52.674,3,35C3,17.327,17.327,3,35,3c17.674,0,32,14.327,32,32C67,52.674,52.674,67,35,67z"/>
<rect x="4186.821" y="1667.834" fill="#FFFFFF" stroke="#231F20" stroke-miterlimit="10" width="395.74" height="677.716"/>
<polygon fill="none" stroke="#1F2D67" stroke-miterlimit="10" points="38.197,26.054 51.939,23.804 45.367,36.079 51.752,48.452 
	38.047,45.995 28.253,55.893 26.355,42.099 13.916,35.843 26.448,29.774 28.554,16.011 "/>
<polygon fill="#1F2D67" points="37.078,29.412 46.925,27.8 42.216,36.596 46.79,45.461 36.971,43.7 29.953,50.792 28.593,40.908 
	19.68,36.426 28.66,32.078 30.168,22.216 "/>
</svg>
