<?xml version="1.0" encoding="utf-8"?>
<!-- Generator: Adobe Illustrator 15.0.0, SVG Export Plug-In . SVG Version: 6.00 Build 0)  -->
<!DOCTYPE svg PUBLIC "-//W3C//DTD SVG 1.1//EN" "http://www.w3.org/Graphics/SVG/1.1/DTD/svg11.dtd">
<svg version="1.1" id="Layer_1" xmlns="http://www.w3.org/2000/svg" xmlns:xlink="http://www.w3.org/1999/xlink" x="0px" y="0px"
	 width="70px" height="70px" viewBox="0 0 70 70" enable-background="new 0 0 70 70" xml:space="preserve">
<g>
	<linearGradient id="SVGID_1_" gradientUnits="userSpaceOnUse" x1="13.7871" y1="13.7871" x2="56.2135" y2="56.2135">
		<stop  offset="0.5" style="stop-color:#8CC63F"/>
		<stop  offset="0.5" style="stop-color:#39B54A"/>
	</linearGradient>
	<circle fill="url(#SVGID_1_)" cx="35" cy="35" r="30"/>
</g>
<linearGradient id="SVGID_2_" gradientUnits="userSpaceOnUse" x1="10.252" y1="10.252" x2="59.7494" y2="59.7494">
	<stop  offset="0.5" style="stop-color:#8CC63F"/>
	<stop  offset="0.5" style="stop-color:#39B54A"/>
</linearGradient>
<path fill="url(#SVGID_2_)" d="M35,0C15.67,0,0,15.67,0,35s15.67,35,35,35s35-15.67,35-35S54.33,0,35,0z M35,67
	C17.327,67,3,52.674,3,35C3,17.327,17.327,3,35,3c17.674,0,32,14.327,32,32C67,52.674,52.674,67,35,67z"/>
<rect x="4186.821" y="1667.834" fill="#FFFFFF" stroke="#231F20" stroke-miterlimit="10" width="395.741" height="677.716"/>
<g>
	<polygon fill="#B3B3B3" points="46.167,30.58 46.167,37.58 36.574,37.58 36.574,48.5 30.426,48.5 30.426,37.58 20.833,37.58 
		20.833,30.58 30.426,30.58 30.426,19.67 36.574,19.67 36.574,30.58 	"/>
	<polygon fill="#F2F2F2" points="48.167,30.58 48.167,37.58 38.574,37.58 38.574,48.5 32.426,48.5 32.426,37.58 22.833,37.58 
		22.833,30.58 32.426,30.58 32.426,19.67 38.574,19.67 38.574,30.58 	"/>
</g>
</svg>
