<?xml version="1.0" encoding="utf-8"?>
<!-- Generator: Adobe Illustrator 15.0.0, SVG Export Plug-In . SVG Version: 6.00 Build 0)  -->
<!DOCTYPE svg PUBLIC "-//W3C//DTD SVG 1.1//EN" "http://www.w3.org/Graphics/SVG/1.1/DTD/svg11.dtd">
<svg version="1.1" id="Layer_1" xmlns="http://www.w3.org/2000/svg" xmlns:xlink="http://www.w3.org/1999/xlink" x="0px" y="0px"
	 width="70px" height="70px" viewBox="0 0 70 70" enable-background="new 0 0 70 70" xml:space="preserve">
<linearGradient id="SVGID_1_" gradientUnits="userSpaceOnUse" x1="35.2114" y1="69.0898" x2="84.709" y2="19.5923" gradientTransform="matrix(1 0 0 -1 -24.96 79.3398)">
	<stop  offset="0.5" style="stop-color:#2E3192"/>
	<stop  offset="0.5" style="stop-color:#1B1464"/>
</linearGradient>
<path fill="url(#SVGID_1_)" d="M35,0C15.67,0,0,15.67,0,35s15.67,35,35,35s35-15.67,35-35S54.33,0,35,0z M35,67
	C17.327,67,3,52.674,3,35C3,17.327,17.327,3,35,3c17.674,0,32,14.327,32,32C67,52.674,52.674,67,35,67z"/>
<rect x="4186.821" y="1667.834" fill="#FFFFFF" stroke="#231F20" stroke-miterlimit="10" width="395.738" height="677.716"/>
<g>
	<linearGradient id="SVGID_2_" gradientUnits="userSpaceOnUse" x1="13.7866" y1="13.7866" x2="56.2137" y2="56.2137">
		<stop  offset="0.5" style="stop-color:#2E3192"/>
		<stop  offset="0.5" style="stop-color:#1B1464"/>
	</linearGradient>
	<circle fill="url(#SVGID_2_)" cx="35" cy="35" r="30"/>
</g>
<g>
	<path fill="#A6A8AB" d="M28.438,45.772l13.471-13.313c2.033,0.782,4.428,0.361,6.079-1.271c1.755-1.734,2.154-4.321,1.188-6.442
		l-0.831,3.032l-3.434,0.898l-2.495-2.525l0.938-3.422l3.042-0.795c-2.109-0.99-4.701-0.622-6.455,1.112
		c-1.652,1.633-2.103,4.021-1.344,6.064l-13.47,13.312c-1.917-0.688-4.142-0.271-5.687,1.256c-2.145,2.12-2.167,5.576-0.046,7.721
		c2.119,2.145,5.576,2.165,7.72,0.045C28.66,49.917,29.103,47.696,28.438,45.772z M22.186,51.135L19.69,48.61l0.938-3.422
		l3.435-0.899l2.495,2.524l-0.939,3.424L22.186,51.135z"/>
	
		<rect x="31.982" y="28.407" transform="matrix(0.7029 0.7113 -0.7113 0.7029 36.6381 -12.5998)" fill="#808184" width="2.839" height="18.299"/>
</g>
</svg>
