<?xml version="1.0" encoding="utf-8"?>
<!-- Generator: Adobe Illustrator 15.0.0, SVG Export Plug-In . SVG Version: 6.00 Build 0)  -->
<!DOCTYPE svg PUBLIC "-//W3C//DTD SVG 1.1//EN" "http://www.w3.org/Graphics/SVG/1.1/DTD/svg11.dtd">
<svg version="1.1" id="Layer_1" xmlns="http://www.w3.org/2000/svg" xmlns:xlink="http://www.w3.org/1999/xlink" x="0px" y="0px"
	 width="70px" height="70px" viewBox="0 0 70 70" enable-background="new 0 0 70 70" xml:space="preserve">
<g>
	
		<linearGradient id="SVGID_1_" gradientUnits="userSpaceOnUse" x1="359.707" y1="794.1074" x2="402.1334" y2="836.5338" gradientTransform="matrix(1 0 0 1 -345.9199 -780.3203)">
		<stop  offset="0.5" style="stop-color:#009245"/>
		<stop  offset="0.5" style="stop-color:#006837"/>
	</linearGradient>
	<circle fill="url(#SVGID_1_)" cx="35" cy="35" r="30"/>
</g>
<linearGradient id="SVGID_2_" gradientUnits="userSpaceOnUse" x1="10.252" y1="10.252" x2="59.7494" y2="59.7494">
	<stop  offset="0.5" style="stop-color:#009245"/>
	<stop  offset="0.5" style="stop-color:#006837"/>
</linearGradient>
<path fill="url(#SVGID_2_)" d="M35,0C15.67,0,0,15.67,0,35s15.67,35,35,35s35-15.67,35-35S54.33,0,35,0z M35,67
	C17.327,67,3,52.674,3,35C3,17.327,17.327,3,35,3c17.674,0,32,14.327,32,32C67,52.674,52.674,67,35,67z"/>
<rect x="4186.821" y="1667.834" fill="#FFFFFF" stroke="#231F20" stroke-miterlimit="10" width="395.74" height="677.716"/>
<g>
	<polygon fill="#FBB040" points="16.696,28.547 30.355,22.769 31.637,23.438 45.758,18.238 49.676,39.67 21.598,51.454 
		15.78,30.183 	"/>
	<polygon fill="#E6E6E6" points="21.598,51.454 19.052,31.092 47.896,19.987 49.676,39.67 	"/>
	<polygon fill="#FFFFFF" points="21.598,51.454 20.871,31.819 49.596,20.911 49.676,39.67 	"/>
	<polygon fill="#FCC062" points="23.779,33.273 21.598,51.454 49.676,39.67 53.759,22.001 	"/>
</g>
</svg>
