<?xml version="1.0" encoding="utf-8"?>
<!-- Generator: Adobe Illustrator 15.0.0, SVG Export Plug-In . SVG Version: 6.00 Build 0)  -->
<!DOCTYPE svg PUBLIC "-//W3C//DTD SVG 1.1//EN" "http://www.w3.org/Graphics/SVG/1.1/DTD/svg11.dtd">
<svg version="1.1" id="Layer_1" xmlns="http://www.w3.org/2000/svg" xmlns:xlink="http://www.w3.org/1999/xlink" x="0px" y="0px"
	 width="70px" height="70px" viewBox="0 0 70 70" enable-background="new 0 0 70 70" xml:space="preserve">
<linearGradient id="SVGID_1_" gradientUnits="userSpaceOnUse" x1="10.252" y1="10.252" x2="59.7494" y2="59.7494">
	<stop  offset="0.5" style="stop-color:#4D4D4D"/>
	<stop  offset="0.5" style="stop-color:#1A1A1A"/>
</linearGradient>
<path fill="url(#SVGID_1_)" d="M35,0C15.67,0,0,15.67,0,35s15.67,35,35,35s35-15.67,35-35S54.33,0,35,0z M35,67
	C17.327,67,3,52.674,3,35C3,17.327,17.327,3,35,3c17.674,0,32,14.327,32,32C67,52.674,52.674,67,35,67z"/>
<rect x="4186.821" y="1667.834" fill="#FFFFFF" stroke="#231F20" stroke-miterlimit="10" width="395.74" height="677.716"/>
<g>
	
		<linearGradient id="SVGID_2_" gradientUnits="userSpaceOnUse" x1="655.707" y1="538.1074" x2="698.1334" y2="580.5338" gradientTransform="matrix(1 0 0 1 -641.9199 -524.3203)">
		<stop  offset="0.5" style="stop-color:#4D4D4D"/>
		<stop  offset="0.5" style="stop-color:#1A1A1A"/>
	</linearGradient>
	<circle fill="url(#SVGID_2_)" cx="35" cy="35" r="30"/>
</g>
<g>
	<polygon fill="#CCCCCC" points="40.905,38.768 39.17,40.502 38.106,39.043 39.347,37.803 	"/>
	
		<rect x="38.518" y="42.077" transform="matrix(-0.7071 -0.7071 0.7071 -0.7071 43.9914 104.8293)" fill="#A67C52" width="10.377" height="2.453"/>
	<path fill="#CCCCCC" d="M48.243,46.105c0.47,0.469,0.471,1.23,0,1.701c-0.469,0.469-1.23,0.469-1.7-0.002L48.243,46.105z"/>
	
		<linearGradient id="SVGID_3_" gradientUnits="userSpaceOnUse" x1="29.4731" y1="36.7686" x2="40.4929" y2="25.7488" gradientTransform="matrix(0.7071 -0.7071 0.7071 0.7071 -14.5972 34.4497)">
		<stop  offset="0" style="stop-color:#F1F2F2"/>
		<stop  offset="0.0136" style="stop-color:#E7E8E9;stop-opacity:0.9965"/>
		<stop  offset="0.0637" style="stop-color:#C9CACC;stop-opacity:0.9836"/>
		<stop  offset="0.1164" style="stop-color:#B1B3B5;stop-opacity:0.97"/>
		<stop  offset="0.1722" style="stop-color:#A0A2A5;stop-opacity:0.9557"/>
		<stop  offset="0.2332" style="stop-color:#96989B;stop-opacity:0.94"/>
		<stop  offset="0.3091" style="stop-color:#939598;stop-opacity:0.9205"/>
		<stop  offset="0.4848" style="stop-color:#231F20;stop-opacity:0.697"/>
		<stop  offset="1" style="stop-color:#231F20;stop-opacity:0"/>
	</linearGradient>
	<circle opacity="0.5" fill="url(#SVGID_3_)" cx="32.242" cy="31.816" r="7.792"/>
	<path fill="#B3B3B3" d="M25.464,25.039c-3.743,3.743-3.743,9.812,0,13.555c3.743,3.742,9.812,3.742,13.554,0
		c3.743-3.743,3.743-9.812,0-13.555C35.276,21.296,29.208,21.296,25.464,25.039z M37.752,37.326c-3.043,3.043-7.977,3.043-11.02,0
		s-3.043-7.977,0-11.02c3.043-3.042,7.977-3.043,11.021,0C40.795,29.349,40.795,34.284,37.752,37.326z"/>
	<path fill="#808080" d="M26.583,26.157c-3.125,3.125-3.125,8.193,0,11.319c3.125,3.125,8.193,3.125,11.318,0
		c3.126-3.126,3.126-8.194,0-11.319C34.776,23.032,29.708,23.032,26.583,26.157z M37.752,37.326c-3.043,3.043-7.977,3.043-11.02,0
		s-3.043-7.977,0-11.02c3.043-3.042,7.977-3.043,11.021,0C40.795,29.349,40.795,34.284,37.752,37.326z"/>
</g>
</svg>
